<svg width="900" height="580" viewBox="0 0 900 580" fill="none" xmlns="http://www.w3.org/2000/svg">
  <rect width="900" height="580" rx="40" fill="#082B52"/>
  <rect x="72" y="62" width="756" height="456" rx="28" fill="#FFFFFF"/>
  <rect x="72" y="62" width="190" height="456" rx="28" fill="#0B3769"/>
  <rect x="105" y="108" width="118" height="22" rx="8" fill="#FFFFFF"/>
  <rect x="105" y="172" width="110" height="14" rx="7" fill="#93C5FD"/>
  <rect x="105" y="222" width="130" height="14" rx="7" fill="#93C5FD"/>
  <rect x="105" y="272" width="95" height="14" rx="7" fill="#93C5FD"/>
  <rect x="105" y="322" width="140" height="14" rx="7" fill="#93C5FD"/>
  <rect x="298" y="104" width="470" height="54" rx="16" fill="#F1F5F9"/>
  <rect x="298" y="192" width="208" height="110" rx="18" fill="#EFF6FF"/>
  <rect x="538" y="192" width="208" height="110" rx="18" fill="#F0FDF4"/>
  <rect x="298" y="338" width="448" height="112" rx="18" fill="#F8FAFC" stroke="#E2E8F0" stroke-width="2"/>
  <rect x="326" y="368" width="170" height="14" rx="7" fill="#082B52"/>
  <rect x="326" y="400" width="360" height="12" rx="6" fill="#CBD5E1"/>
  <rect x="326" y="428" width="310" height="12" rx="6" fill="#CBD5E1"/>
  <circle cx="402" cy="247" r="34" fill="#0D6EFD"/>
  <path d="M386 247L399 260L421 232" stroke="#FFFFFF" stroke-width="8" stroke-linecap="round" stroke-linejoin="round"/>
  <circle cx="642" cy="247" r="34" fill="#10B981"/>
  <path d="M622 247H662" stroke="#FFFFFF" stroke-width="8" stroke-linecap="round"/>
  <path d="M642 227V267" stroke="#FFFFFF" stroke-width="8" stroke-linecap="round"/>
</svg>